{"title":"Luis and His Friends from Ou 2018 HDRip x264 [MW]","magnet":"magnet:?xt=urn:btih:99f8bf4eb2fbd0a3c7980aad28e96ab2be712af3&dn=Luis+and+His+Friends+from+Ou+2018+HDRip+x264+%5BMW%5D&tr=udp%3A%2F%2Ftracker.leechers-paradise.org%3A6969&tr=udp%3A%2F%2Fzer0day.ch%3A1337&tr=udp%3A%2F%2Fopen.demonii.com%3A1337&tr=udp%3A%2F%2Ftracker.coppersurfer.tk%3A6969&tr=udp%3A%2F%2Fexodus.desync.com%3A6969","uploader":"MFreaky","categoryP":"video","categoryS":"hd___movies","size":"810374741","seeders":"17","leechers":"22","description":" <a href=\"https://pichub.site/image/D7BFt\" rel=\"nofollow\" target=\"_NEW\">https://pichub.site/image/D7BFt</a> <a href=\"\nhttps://pichub.site/image/D7mup\" rel=\"nofollow\" target=\"_NEW\">\nhttps://pichub.site/image/D7mup</a> <a href=\"\nhttps://pichub.site/image/D7u3y\" rel=\"nofollow\" target=\"_NEW\">\nhttps://pichub.site/image/D7u3y</a> <a href=\"\nhttps://pichub.site/image/D7Nab\" rel=\"nofollow\" target=\"_NEW\">\nhttps://pichub.site/image/D7Nab</a> <a href=\"\nhttps://pichub.site/image/D7U80\" rel=\"nofollow\" target=\"_NEW\">\nhttps://pichub.site/image/D7U80</a> <a href=\"\nhttps://pichub.site/image/D7vlV\" rel=\"nofollow\" target=\"_NEW\">\nhttps://pichub.site/image/D7vlV</a>\r\n\r\nIMDB <a href=\"\nhttps://www.imdb.com/title/tt4410000/\" rel=\"nofollow\" target=\"_NEW\">\nhttps://www.imdb.com/title/tt4410000/</a>\r\n\r\nVideo\r\nID                                       : 1\r\nFormat                                   : AVC\r\nFormat/Info                              : Advanced Video Codec\r\nFormat profile                           : High@L4.1\r\nFormat settings                          : CABAC / 4 Ref Frames\r\nFormat settings, CABAC                   : Yes\r\nFormat settings, RefFrames               : 4 frames\r\nCodec ID                                 : V_MPEG4/ISO/AVC\r\nDuration                                 : 1 h 22 min\r\nBit rate                                 : 1 200 kb/s\r\nWidth                                    : 720 pixels\r\nHeight                                   : 384 pixels\r\nDisplay aspect ratio                     : 1.85:1\r\nFrame rate mode                          : Constant\r\nFrame rate                               : 29.970 (30000/1001) FPS\r\nColor space                              : YUV\r\nChroma subsampling                       : 4:2:0\r\nBit depth                                : 8 bits\r\nScan type                                : Progressive\r\nBits/(Pixel*Frame)                       : 0.145\r\nStream size                              : 697 MiB (90%)\r\nWriting library                          : x264 core 155 r2901 7d0ff22\r\nDefault                                  : Yes\r\nForced                                   : No\r\n\r\nAudio\r\nID                                       : 2\r\nFormat                                   : AAC\r\nFormat/Info                              : Advanced Audio Codec\r\nFormat profile                           : HE-AAC / LC\r\nFormat settings                          : Explicit\r\nCodec ID                                 : A_AAC-2\r\nDuration                                 : 1 h 22 min\r\nBit rate                                 : 127 kb/s\r\nChannel(s)                               : 2 channels\r\nChannel positions                        : Front: L R\r\nSampling rate                            : 48.0 kHz / 24.0 kHz\r\nFrame rate                               : 23.438 FPS (1024 SPF)\r\nCompression mode                         : Lossy\r\nStream size                              : 74.6 MiB (10%)\r\nLanguage                                 : English\r\nDefault                                  : Yes\r\nForced                                   : No","last_updated":"2018-09-01T12:05:25.636Z","parsed":{"xt":"urn:btih:99f8bf4eb2fbd0a3c7980aad28e96ab2be712af3","dn":"Luis and His Friends from Ou 2018 HDRip x264 [MW]","tr":["udp://exodus.desync.com:6969","udp://open.demonii.com:1337","udp://tracker.coppersurfer.tk:6969","udp://tracker.leechers-paradise.org:6969","udp://zer0day.ch:1337"],"infoHash":"99f8bf4eb2fbd0a3c7980aad28e96ab2be712af3","infoHashBuffer":{"type":"Buffer","data":[153,248,191,78,178,251,208,163,199,152,10,173,40,233,106,178,190,113,42,243]},"name":"Luis and His Friends from Ou 2018 HDRip x264 [MW]","announce":["udp://exodus.desync.com:6969","udp://open.demonii.com:1337","udp://tracker.coppersurfer.tk:6969","udp://tracker.leechers-paradise.org:6969","udp://zer0day.ch:1337"],"urlList":[]}}